#!OML:ASF I:\Random Stuff\random\construction\7_22_03\Session 2\subj1.ASF
:FULLY-SPECIFIED
:DEGREES
904
root -10.1986 17.8285 4.94051 -175.625 -24.3622 -176.588
lowerback 6.09963 1.52743 -4.52265
upperback -0.586548 1.68644 -0.0280556
thorax -4.16395 0.933357 2.34641
lowerneck -26.1373 -0.119226 -1.26392
upperneck 32.2238 -2.39237 4.51488
head 15.9268 -0.825719 1.55845
rclavicle -6.65929e-014 7.95139e-016
rhumerus -41.4665 -6.43875 -78.0395
rradius 30.426
rwrist 2.6818
rhand -18.8532 24.9525
rfingers 7.12502
rthumb 7.44686 -4.89638
lclavicle -6.65929e-014 7.95139e-016
lhumerus -27.8617 -12.4257 90.8483
lradius 31.2874
lwrist 28.5261
lhand -19.14 59.9108
lfingers 7.12502
lthumb -172.83 629.769
rfemur -12.1156 4.03595 17.1989
rtibia 31.9009
rfoot -12.9059 -1.86444
rtoes -16.0952
lfemur -13.1368 -8.75538 -13.0646
ltibia 18.1012
lfoot -12.7138 1.95934
ltoes -30.6872
905
root -10.1151 17.8345 4.97843 -175.694 -24.6329 -176.651
lowerback 5.93883 1.54717 -4.43858
upperback -0.630418 1.72769 -0.0252781
thorax -4.11934 0.952425 2.30109
lowerneck -26.0327 -0.0909846 -1.13444
upperneck 31.9672 -2.23718 4.20622
head 15.7651 -0.781687 1.43334
rclavicle 6.92765e-014 -4.77083e-014
rhumerus -41.5251 -6.02147 -78.1775
rradius 30.5979
rwrist 2.36707
rhand -18.8981 25.1603
rfingers 7.12502
rthumb 7.40347 -4.69013
lclavicle 6.92765e-014 -4.77083e-014
lhumerus -27.8745 -12.5892 90.9594
lradius 30.806
lwrist 28.4112
lhand -19.1714 59.9667
lfingers 7.12502
lthumb -172.86 629.826
rfemur -10.7531 4.18227 17.1929
rtibia 31.8082
rfoot -13.0775 -2.10625
rtoes -14.9266
lfemur -13.2908 -8.80413 -12.8523
ltibia 17.9314
lfoot -12.514 1.7826
ltoes -32.848
906
root -10.0271 17.8323 5.01654 -175.802 -24.858 -176.763
lowerback 5.87279 1.59981 -4.33518
upperback -0.640946 1.8082 -0.0424616
thorax -4.09495 0.989725 2.21879
lowerneck -26.02 -0.0842242 -1.13119
upperneck 31.7398 -2.11524 4.04185
head 15.6454 -0.744273 1.3868
rclavicle 4.73108e-014 -1.66979e-014
rhumerus -41.5221 -5.57552 -78.3603
rradius 30.8339
rwrist 1.86107
rhand -18.9379 24.7151
rfingers 7.12502
rthumb 7.36505 -5.13667
lclavicle 4.73108e-014 -1.66979e-014
lhumerus -27.939 -12.9165 91.1237
lradius 30.5304
lwrist 28.298
lhand -19.3679 60.2842
lfingers 7.12502
lthumb -173.05 449.85
rfemur -9.31748 4.24648 17.1793
rtibia 31.478
rfoot -13.0574 -2.2925
rtoes -13.3759
lfemur -13.3546 -8.77145 -12.7321
ltibia 17.6974
lfoot -12.1265 1.64051
ltoes -33.5463
907
root -9.92903 17.8275 5.05567 -175.828 -25.11 -176.953
lowerback 5.82436 1.64578 -4.29848
upperback -0.65229 1.87191 -0.0935233
thorax -4.08101 1.01968 2.1401
lowerneck -25.9948 -0.119793 -1.25409
upperneck 31.4626 -2.07525 4.08114
head 15.5088 -0.726193 1.43133
rclavicle 3.63776e-014 -3.49861e-014
rhumerus -41.4823 -5.13389 -78.605
rradius 31.1228
rwrist 1.38934
rhand -19.0324 24.1941
rfingers 7.12502
rthumb 7.2739 -5.66085
lclavicle 3.63776e-014 -3.49861e-014
lhumerus -28.0563 -13.0396 91.1868
lradius 30.4145
lwrist 28.0262
lhand -19.67 60.624
lfingers 7.12502
lthumb -173.342 449.501
rfemur -7.90636 4.18744 17.1395
rtibia 30.8719
rfoot -12.8219 -2.61439
rtoes -11.9973
lfemur -13.5115 -8.76415 -12.6592
ltibia 17.4873
lfoot -11.6148 1.62276
ltoes -33.6667
908
root -9.8204 17.8243 5.09642 -175.755 -25.4359 -177.174
lowerback 5.77806 1.67519 -4.28641
upperback -0.696271 1.9108 -0.149762
thorax -4.10103 1.039 2.07173
lowerneck -25.9214 -0.129625 -1.2317
upperneck 31.152 -1.96685 3.87959
head 15.3389 -0.696651 1.36217
rclavicle -6.01324e-014 3.97569e-015
rhumerus -41.4753 -4.7359 -78.8218
rradius 31.4399
rwrist 0.971417
rhand -19.0341 24.043
rfingers 7.12502
rthumb 7.27224 -5.81207
lclavicle -6.01324e-014 3.97569e-015
lhumerus -28.2134 -13.035 91.1566
lradius 30.4442
lwrist 27.744
lhand -19.8495 60.8158
lfingers 7.12502
lthumb -173.515 449.304
rfemur -6.56748 4.03865 17.1399
rtibia 29.9479
rfoot -11.9978 -3.11669
rtoes -10.5421
lfemur -13.8405 -8.81064 -12.5426
ltibia 17.3774
lfoot -11.2491 1.45357
ltoes -35.595
909
root -9.70402 17.8149 5.14057 -175.621 -25.8207 -177.346
lowerback 5.72233 1.71042 -4.16801
upperback -0.77767 1.96593 -0.193675
thorax -4.1522 1.06555 1.95462
lowerneck -25.7812 -0.111438 -1.16345
upperneck 30.7993 -1.79047 3.55847
head 15.1322 -0.650537 1.24878
rclavicle -1.91827e-014 1.59028e-015
rhumerus -41.4507 -4.4371 -79.0016
rradius 31.7366
rwrist 0.582109
rhand -18.991 24.0355
rfingers 7.12502
rthumb 7.3138 -5.81806
lclavicle -1.91827e-014 1.59028e-015
lhumerus -28.4176 -13.074 91.0864
lradius 30.6739
lwrist 27.8105
lhand -19.7626 60.8396
lfingers 7.12502
lthumb -173.431 449.282
rfemur -5.25796 3.88339 17.2764
rtibia 28.5744
rfoot -10.3832 -3.69482
rtoes -10.2564
lfemur -14.3767 -8.96794 -12.3259
ltibia 17.4147
lfoot -10.9544 1.30214
ltoes -37.4903
910
root -9.57969 17.7986 5.18701 -175.433 -26.2234 -177.49
lowerback 5.65814 1.73562 -4.00804
upperback -0.875566 2.01088 -0.235387
thorax -4.2133 1.08641 1.8175
lowerneck -25.6879 -0.128367 -1.20798
upperneck 30.5324 -1.69138 3.39601
head 14.9837 -0.62925 1.20709
rclavicle 2.92213e-014 0
rhumerus -41.4 -4.04935 -79.3041
rradius 32.0716
rwrist 0.17346
rhand -19.0448 23.9394
rfingers 7.12502
rthumb 7.26187 -5.91602
lclavicle 2.92213e-014 0
lhumerus -28.5469 -12.9783 90.8811
lradius 30.9538
lwrist 28.249
lhand -19.4807 60.5634
lfingers 7.12502
lthumb -173.159 449.567
rfemur -3.92541 3.70821 17.5024
rtibia 26.6421
rfoot -8.51194 -4.16353
rtoes -11.3258
lfemur -15.1226 -9.25963 -12.028
ltibia 17.6526
lfoot -10.69 1.35062
ltoes -38.3089
911
root -9.44582 17.7777 5.23202 -175.249 -26.6184 -177.597
lowerback 5.63662 1.79624 -3.81553
upperback -0.981138 2.10303 -0.277955
thorax -4.30772 1.13017 1.65531
lowerneck -25.6525 -0.204906 -1.32223
upperneck 30.3071 -1.67969 3.30129
head 14.8725 -0.64297 1.18896
rclavicle 7.31528e-014 -1.74931e-014
rhumerus -41.414 -3.62539 -79.682
rradius 32.5136
rwrist -0.245999
rhand -19.0411 23.7449
rfingers 7.12502
rthumb 7.2655 -6.11039
lclavicle 7.31528e-014 -1.74931e-014
lhumerus -28.5417 -12.8121 90.6222
lradius 31.1112
lwrist 28.4461
lhand -19.239 60.2805
lfingers 7.12502
lthumb -172.926 449.858
rfemur -2.61518 3.53828 17.7978
rtibia 24.1816
rfoot -9.06527 -5.77388
rtoes -25.0712
lfemur -15.9937 -9.40277 -11.6631
ltibia 18.0638
lfoot -10.5036 1.25603
ltoes -38.6737
912
root -9.30233 17.7532 5.27789 -174.993 -27.0965 -177.682
lowerback 5.63683 1.89676 -3.5496
upperback -1.12277 2.25261 -0.315662
thorax -4.45156 1.20142 1.4499
lowerneck -25.6066 -0.336877 -1.49978
upperneck 30.0624 -1.70508 3.16821
head 14.7521 -0.684506 1.15861
rclavicle -5.70512e-014 3.97569e-016
rhumerus -41.4563 -3.29395 -79.9846
rradius 33.024
rwrist -0.717023
rhand -18.852 23.5091
rfingers 7.12502
rthumb 7.448 -6.33974
lclavicle -5.70512e-014 3.97569e-016
lhumerus -28.542 -12.6869 90.4284
lradius 31.293
lwrist 28.2314
lhand -19.1164 60.2416
lfingers 7.12502
lthumb -172.807 449.901
rfemur -1.46835 3.50579 18.192
rtibia 21.3296
rfoot -9.60435 -7.48844
rtoes -26.9548
lfemur -17.0567 -9.43131 -11.2377
ltibia 18.5641
lfoot -10.2892 0.966236
ltoes -38.8229
913
root -9.15313 17.7296 5.32587 -174.603 -27.6617 -177.776
lowerback 5.58912 1.97189 -3.24323
upperback -1.29409 2.37314 -0.349721
thorax -4.5947 1.25681 1.2293
lowerneck -25.6198 -0.431181 -1.51182
upperneck 29.8854 -1.66049 2.77953
head 14.6687 -0.714571 1.00949
rclavicle -5.2181e-015 3.18055e-015
rhumerus -41.4502 -2.93791 -80.2722
rradius 33.5515
rwrist -1.20895
rhand -18.7256 23.5297
rfingers 7.12502
rthumb 7.57001 -6.3148
lclavicle -5.2181e-015 3.18055e-015
lhumerus -28.5999 -12.4931 90.1921
lradius 31.638
lwrist 28.0597
lhand -18.9989 60.1522
lfingers 7.12502
lthumb -172.694 449.994
rfemur -0.414149 3.47675 18.6527
rtibia 18.2324
rfoot -9.90056 -9.06841
rtoes -27.6794
lfemur -18.3195 -9.52013 -10.7726
ltibia 19.0818
lfoot -10.013 0.633934
ltoes -38.9268
914
root -9.0001 17.7049 5.37685 -174.149 -28.2473 -177.854
lowerback 5.49484 2.0256 -2.89964
upperback -1.45198 2.46995 -0.378068
thorax -4.69367 1.29792 0.998131
lowerneck -25.6763 -0.446715 -1.33257
upperneck 29.6436 -1.52237 2.24165
head 14.5611 -0.701707 0.786037
rclavicle 9.8796e-014 6.75868e-015
rhumerus -41.4151 -2.48564 -80.64
rradius 34.1623
rwrist -1.68437
rhand -19.0025 23.7341
rfingers 7.12502
rthumb 7.30274 -6.11985
lclavicle 9.8796e-014 6.75868e-015
lhumerus -28.6231 -12.2122 89.8933
lradius 32.114
lwrist 28.0534
lhand -18.9835 60.0832
lfingers 7.12502
lthumb -172.679 629.937
rfemur 0.64764 3.32731 19.1472
rtibia 14.9824
rfoot -9.95679 -10.3649
rtoes -27.6464
lfemur -19.6585 -9.67036 -10.2724
ltibia 19.5282
lfoot -9.68349 0.387656
ltoes -39.2818
915
root -8.83962 17.678 5.43375 -173.731 -28.8708 -177.862
lowerback 5.48222 2.08666 -2.48025
upperback -1.57947 2.58193 -0.369233
thorax -4.80477 1.34404 0.759364
lowerneck -25.6939 -0.478841 -1.27635
upperneck 29.2092 -1.39143 1.84841
head 14.3649 -0.680441 0.643106
rclavicle -2.77802e-014 4.77083e-015
rhumerus -41.3522 -1.96724 -81.0061
rradius 34.8772
rwrist -2.31239
rhand -19.259 23.6139
rfingers 7.12502
rthumb 7.0551 -6.24852
lclavicle -2.77802e-014 4.77083e-015
lhumerus -28.5344 -11.5396 89.4953
lradius 32.4921
lwrist 27.4221
lhand -18.6165 59.7206
lfingers 7.12502
lthumb -172.325 629.561
rfemur 1.69923 3.38796 19.7352
rtibia 11.6061
rfoot -9.72278 -11.654
rtoes -27.1729
lfemur -21.0298 -9.98236 -9.66293
ltibia 19.945
lfoot -9.33903 0.40107
ltoes -40.3796
